<?xml version="1.0" standalone="no"?>
<!DOCTYPE svg PUBLIC "-//W3C//DTD SVG 20010904//EN"
 "http://www.w3.org/TR/2001/REC-SVG-20010904/DTD/svg10.dtd">
<svg version="1.0" xmlns="http://www.w3.org/2000/svg"
 width="928.000000pt" height="928.000000pt" viewBox="0 0 928.000000 928.000000"
 preserveAspectRatio="xMidYMid meet">
<metadata>
Created by potrace 1.11, written by Peter Selinger 2001-2013
</metadata>
<g transform="translate(0.000000,928.000000) scale(0.100000,-0.100000)"
fill="#000000" stroke="none">
<path d="M3748 8145 c-2 -2 -35 -7 -74 -10 -80 -7 -116 -12 -164 -20 -19 -4
-48 -8 -65 -10 -16 -2 -30 -4 -30 -5 0 -2 -33 -9 -70 -14 -16 -3 -31 -6 -32
-7 -4 -2 -7 -3 -58 -13 -22 -4 -44 -10 -49 -14 -6 -3 -24 -7 -40 -9 -17 -2
-73 -17 -125 -33 -51 -17 -100 -30 -107 -30 -8 0 -14 -4 -14 -8 0 -5 -6 -9
-12 -10 -15 -1 -52 -10 -55 -12 -2 -2 -6 -3 -10 -4 -5 -1 -18 -7 -29 -14 -12
-6 -24 -8 -28 -5 -3 3 -6 0 -6 -7 0 -7 -3 -11 -6 -8 -6 6 -39 -6 -134 -49 -30
-14 -60 -26 -66 -27 -7 -1 -19 -8 -28 -15 -9 -7 -16 -10 -16 -5 0 5 -4 5 -8
-1 -10 -14 -105 -61 -110 -55 -2 3 -8 -3 -13 -12 -6 -10 -17 -18 -25 -18 -8 0
-26 -8 -40 -17 -44 -29 -88 -53 -106 -59 -10 -4 -18 -10 -18 -14 0 -4 -18 -15
-40 -25 -22 -10 -40 -22 -40 -27 0 -4 -7 -8 -15 -8 -8 0 -15 -3 -15 -7 0 -5
-23 -21 -50 -38 -28 -16 -50 -33 -50 -39 0 -5 -3 -7 -6 -3 -3 3 -14 -2 -23
-11 -10 -10 -28 -24 -41 -32 -13 -8 -36 -27 -51 -42 -16 -15 -29 -24 -29 -20
0 4 -4 2 -8 -3 -4 -6 -19 -20 -34 -32 -117 -89 -438 -408 -438 -434 0 -5 -7
-9 -17 -9 -9 0 -13 -3 -10 -6 4 -4 -6 -21 -21 -39 -70 -83 -152 -192 -152
-203 0 -5 -7 -13 -16 -16 -8 -3 -13 -10 -10 -15 3 -5 -1 -11 -9 -15 -8 -3 -15
-12 -15 -21 0 -8 -5 -15 -10 -15 -6 0 -15 -10 -20 -22 -5 -13 -20 -39 -32 -59
-60 -96 -118 -199 -118 -209 0 -5 -4 -10 -10 -10 -5 0 -10 -3 -9 -7 2 -16 -14
-53 -22 -53 -5 0 -9 -4 -9 -9 0 -5 -17 -44 -37 -88 -21 -43 -36 -81 -35 -85 1
-5 -3 -8 -8 -8 -5 0 -9 -3 -7 -8 2 -7 -10 -37 -49 -129 -8 -17 -14 -36 -14
-42 0 -6 -4 -19 -9 -29 -9 -16 -49 -130 -57 -162 -2 -8 -10 -40 -19 -70 -19
-64 -61 -240 -69 -290 -3 -19 -8 -46 -10 -60 -37 -203 -47 -325 -50 -585 -2
-125 1 -193 8 -197 8 -5 7 -8 -1 -8 -7 0 -10 -6 -8 -12 2 -7 7 -42 10 -78 18
-190 18 -192 34 -285 6 -33 12 -69 14 -80 1 -11 5 -24 8 -30 3 -5 5 -22 4 -37
0 -16 2 -28 5 -28 4 0 7 -6 8 -12 4 -30 10 -63 12 -63 2 0 10 -41 13 -70 1
-11 5 -23 10 -26 4 -3 9 -20 10 -37 1 -18 5 -32 10 -32 4 0 7 -11 7 -25 0 -14
4 -25 9 -25 5 0 8 -8 6 -17 -1 -10 4 -28 11 -41 8 -12 12 -22 9 -22 -6 0 33
-107 56 -152 5 -10 9 -23 9 -28 0 -6 9 -30 20 -52 11 -23 20 -48 20 -55 0 -7
4 -13 8 -13 5 0 9 -6 9 -12 0 -17 86 -192 96 -196 4 -2 7 -9 7 -16 0 -7 13
-32 28 -57 16 -24 29 -46 29 -49 2 -19 199 -321 217 -332 6 -4 7 -8 2 -8 -5 0
3 -11 18 -25 14 -13 26 -27 26 -30 0 -9 92 -119 106 -128 8 -4 14 -12 14 -17
0 -5 26 -38 58 -72 68 -73 252 -258 252 -252 0 2 20 -17 45 -41 24 -25 48 -45
52 -45 5 0 26 -17 48 -38 22 -20 59 -50 83 -66 23 -16 42 -33 42 -38 0 -5 5
-6 10 -3 6 3 10 1 10 -4 0 -6 7 -11 17 -11 9 0 13 -3 10 -7 -4 -3 3 -11 16
-18 52 -27 73 -41 85 -58 7 -9 18 -15 23 -12 5 4 12 -1 15 -9 3 -9 13 -16 20
-16 8 0 23 -8 34 -17 10 -10 41 -29 67 -43 26 -13 50 -27 53 -30 3 -3 19 -12
35 -20 17 -8 32 -17 35 -20 11 -11 136 -70 148 -70 6 0 12 -4 12 -10 0 -5 5
-10 10 -10 6 0 32 -10 58 -21 97 -44 162 -71 172 -73 3 -1 11 -5 18 -9 6 -5
12 -6 12 -3 0 3 12 -1 27 -9 15 -8 30 -12 35 -9 4 3 8 0 8 -5 0 -6 3 -10 8 -9
4 2 48 -10 97 -25 155 -49 189 -59 215 -63 14 -2 39 -7 57 -13 17 -5 34 -7 37
-3 3 3 6 1 6 -5 0 -6 8 -10 18 -10 14 1 97 -12 187 -29 55 -11 115 -17 157
-18 27 -1 48 -3 48 -6 0 -6 111 -12 247 -14 51 0 93 -5 93 -9 0 -5 6 -5 13 0
6 4 53 9 102 10 122 2 242 12 345 27 14 2 48 7 75 11 28 3 57 8 65 10 8 3 33
7 55 11 48 8 70 12 70 14 0 1 11 3 25 6 51 9 235 58 240 63 3 3 14 7 25 9 21
3 30 5 55 15 8 3 49 17 90 31 158 53 518 216 528 239 2 4 9 7 16 7 7 0 23 9
36 20 13 11 31 20 42 20 10 0 18 5 18 10 0 6 12 16 28 23 15 6 31 17 35 24 4
7 12 13 18 13 10 0 86 47 106 66 6 6 34 25 62 43 28 18 51 37 51 42 0 5 7 9
15 9 8 0 15 5 15 10 0 6 5 10 11 10 7 0 22 12 35 28 13 15 24 24 24 21 0 -7
56 39 101 83 16 16 31 28 34 28 7 0 234 228 293 294 23 26 42 52 42 57 0 6 5
7 10 4 6 -3 10 -2 10 2 0 5 9 20 19 33 83 106 118 151 131 170 8 13 26 36 38
51 13 16 20 29 15 29 -4 0 -3 4 2 8 18 12 66 82 58 82 -4 0 -3 4 3 8 6 4 19
22 28 40 9 17 21 32 27 32 6 0 9 7 5 15 -3 8 -2 15 3 15 5 0 14 14 21 30 7 17
15 30 19 30 3 0 14 20 24 45 11 25 24 45 30 45 6 0 8 3 5 6 -3 3 11 38 32 77
20 40 38 75 38 80 1 4 8 20 16 36 9 16 12 31 9 35 -4 3 -2 6 4 6 6 0 14 12 18
27 3 15 15 45 26 67 10 22 19 43 19 47 0 3 8 24 17 45 9 22 18 48 20 59 2 10
9 23 16 27 6 4 8 8 3 8 -5 0 -3 6 3 13 6 8 12 24 14 36 2 13 10 27 17 31 8 5
12 12 8 15 -6 6 8 41 63 162 10 23 19 47 19 52 0 6 4 11 10 11 5 0 7 7 4 15
-4 8 -1 15 5 15 6 0 10 3 9 8 -2 4 6 27 16 52 11 25 20 47 21 50 3 8 15 38 56
133 21 48 34 87 31 87 -4 0 -1 4 6 9 7 4 14 18 15 29 1 12 5 22 9 22 4 0 8 9
8 20 0 11 5 20 12 20 6 0 8 3 5 6 -3 4 -1 16 5 28 7 11 13 26 14 31 1 6 11 31
22 55 11 25 20 47 20 50 1 3 7 18 16 34 8 16 13 33 10 38 -3 4 0 8 5 8 6 0 11
5 11 11 0 5 8 29 19 52 24 56 34 81 35 89 1 3 4 10 9 14 4 4 7 16 7 26 0 10 5
18 10 18 6 0 10 7 10 16 0 8 5 25 12 37 7 12 13 29 14 37 2 8 8 16 14 18 5 2
8 7 5 12 -3 4 9 39 26 76 16 38 34 79 39 92 6 12 14 32 20 45 9 21 31 76 35
87 3 9 26 64 41 97 8 18 20 48 28 66 8 17 18 44 21 59 4 16 10 26 14 24 4 -3
7 3 8 13 1 10 12 40 24 66 12 26 22 54 22 61 0 8 4 14 9 14 4 0 8 6 8 13 1 6
9 30 20 52 11 22 19 43 20 46 0 4 8 24 17 45 9 22 16 42 15 47 -1 4 3 7 10 7
6 0 8 3 5 6 -3 4 -1 16 5 28 7 11 11 24 10 29 -1 4 3 7 9 7 5 0 8 4 4 9 -3 5
-1 12 5 16 6 4 8 11 5 16 -4 5 -1 9 5 9 6 0 8 5 5 10 -3 6 -2 10 3 10 5 0 9 6
9 13 0 6 8 30 17 52 10 22 22 49 26 60 5 11 18 41 29 67 12 26 21 49 21 53 0
5 18 47 58 135 9 19 16 37 17 40 1 8 26 69 57 138 15 34 28 64 28 67 0 2 5 16
12 32 6 15 12 30 13 33 1 3 4 12 8 20 21 54 47 132 46 138 -1 4 0 9 1 12 2 5
5 18 15 60 16 68 27 255 17 274 -3 5 -7 26 -8 45 -4 53 -16 126 -30 176 -13
44 -78 201 -89 215 -7 8 -16 25 -19 38 -4 12 -12 22 -17 22 -5 0 -9 7 -9 15 0
8 -4 15 -10 15 -5 0 -10 5 -10 11 0 6 -6 17 -12 24 -7 8 -22 27 -33 41 -17 23
-124 132 -176 179 -9 8 -21 15 -28 15 -7 0 -9 5 -6 10 3 6 1 10 -5 10 -6 0
-31 14 -55 30 -24 17 -48 30 -53 30 -6 0 -12 4 -14 8 -4 11 -170 82 -206 88
-15 3 -29 9 -30 15 -2 5 -7 7 -12 4 -5 -3 -37 2 -72 10 -55 13 -329 15 -2089
15 -1114 0 -2028 -2 -2031 -5z m440 -649 c2 -3 13 -1 23 5 11 5 19 6 19 1 0
-5 26 -10 58 -11 94 -4 102 -5 102 -10 0 -4 15 -6 33 -7 32 -1 112 -11 112
-14 0 -1 11 -3 25 -5 14 -1 36 -5 50 -9 62 -15 110 -23 110 -18 0 2 6 0 13 -5
11 -10 102 -35 120 -33 4 0 21 -7 37 -15 17 -9 30 -13 30 -9 0 4 7 1 15 -6 8
-6 19 -9 25 -5 5 3 10 1 10 -4 0 -6 3 -10 8 -10 4 1 10 0 15 -1 4 -1 10 -3 15
-4 4 -1 17 -7 28 -14 12 -6 24 -8 28 -5 3 3 6 1 6 -6 0 -7 3 -10 8 -7 4 2 23
-3 42 -11 19 -9 41 -17 49 -19 8 -1 17 -8 21 -14 4 -7 10 -11 14 -9 8 3 188
-82 196 -92 3 -4 15 -9 27 -13 13 -4 29 -13 35 -20 7 -6 30 -20 51 -29 20 -10
37 -22 37 -26 0 -5 8 -11 18 -14 25 -8 75 -40 93 -59 8 -9 21 -18 29 -20 7 -2
21 -10 30 -18 9 -8 28 -24 44 -35 15 -11 36 -27 46 -35 10 -8 33 -26 50 -40
78 -62 220 -198 220 -210 0 -6 5 -10 11 -10 12 0 23 -11 104 -105 28 -32 56
-64 63 -71 6 -7 12 -16 12 -21 0 -4 9 -14 20 -21 11 -7 20 -17 20 -23 0 -6 6
-16 13 -24 28 -30 47 -56 47 -65 0 -6 5 -10 10 -10 6 0 10 -7 10 -15 0 -8 3
-15 8 -15 4 0 23 -26 41 -57 19 -32 37 -60 41 -63 3 -3 24 -36 45 -75 21 -38
42 -72 47 -73 4 -2 6 -7 3 -12 -3 -5 3 -16 12 -26 10 -10 18 -20 17 -23 -2
-15 9 -41 19 -41 6 0 7 -3 4 -7 -4 -3 2 -20 12 -37 11 -17 20 -34 20 -39 0 -4
7 -20 15 -36 9 -16 12 -31 9 -35 -4 -3 -1 -6 6 -6 7 0 10 -3 8 -8 -3 -4 2 -23
12 -42 9 -19 28 -70 41 -112 14 -43 29 -78 33 -78 5 0 6 -4 2 -9 -3 -5 1 -29
10 -53 8 -25 17 -55 19 -69 3 -13 5 -24 6 -24 1 0 4 -16 7 -35 2 -19 8 -37 11
-40 4 -3 8 -14 9 -25 4 -39 12 -90 13 -90 1 0 8 -42 14 -90 3 -16 5 -30 6 -30
2 0 6 -30 13 -118 4 -37 9 -72 12 -77 3 -5 1 -11 -5 -15 -6 -4 -7 -13 -2 -23
10 -20 8 -293 -3 -402 -4 -41 -8 -87 -9 -102 0 -16 -3 -28 -6 -28 -3 0 -5 -12
-6 -27 -1 -29 -9 -86 -20 -138 -3 -16 -7 -37 -8 -45 -1 -8 -5 -22 -9 -30 -3
-8 -9 -31 -12 -50 -6 -38 -13 -65 -15 -65 -2 0 -5 -11 -13 -50 -3 -11 -15 -51
-28 -90 -13 -38 -22 -74 -21 -79 2 -5 -4 -16 -13 -26 -9 -10 -17 -27 -18 -39
-1 -11 -5 -21 -10 -21 -4 0 -7 -6 -6 -12 2 -7 -10 -40 -25 -73 -52 -111 -60
-130 -58 -137 1 -5 -2 -8 -6 -8 -5 0 -16 -19 -27 -42 -20 -47 -96 -180 -106
-188 -3 -3 -14 -21 -24 -40 -10 -19 -21 -37 -24 -40 -4 -3 -17 -22 -30 -42
-12 -21 -27 -38 -32 -38 -6 0 -7 -4 -4 -10 3 -5 1 -10 -4 -10 -6 0 -11 -7 -11
-15 0 -7 -6 -18 -13 -22 -6 -4 -26 -26 -42 -48 -37 -50 -62 -80 -98 -116 -16
-16 -26 -29 -23 -29 3 0 -42 -47 -100 -105 -58 -58 -110 -105 -115 -105 -6 0
-8 -4 -4 -9 3 -5 -3 -12 -13 -15 -11 -4 -31 -19 -45 -34 -14 -15 -44 -40 -66
-56 -23 -17 -41 -33 -41 -38 0 -4 -6 -8 -13 -8 -8 0 -24 -11 -37 -25 -12 -13
-27 -22 -31 -19 -5 3 -9 1 -9 -4 0 -5 -22 -23 -50 -40 -27 -17 -50 -36 -50
-42 0 -6 -4 -9 -9 -5 -5 3 -29 -8 -53 -24 -24 -16 -74 -46 -113 -67 -38 -21
-73 -42 -76 -47 -3 -5 -9 -8 -13 -8 -3 1 -32 -11 -64 -25 -31 -15 -63 -29 -71
-30 -8 -1 -17 -6 -20 -11 -3 -4 -10 -9 -16 -10 -14 -2 -206 -73 -225 -83 -9
-4 -31 -11 -50 -15 -19 -4 -39 -10 -45 -13 -5 -4 -14 -7 -20 -8 -5 -1 -30 -7
-55 -14 -25 -7 -54 -14 -65 -16 -11 -2 -31 -7 -45 -10 -14 -3 -34 -7 -45 -9
-11 -2 -29 -6 -40 -8 -26 -6 -90 -16 -140 -23 -22 -3 -53 -7 -70 -10 -102 -15
-422 -24 -447 -12 -10 5 -19 4 -23 -2 -4 -6 -11 -8 -16 -4 -6 3 -34 8 -62 10
-70 5 -139 13 -185 21 -20 3 -52 7 -69 7 -18 1 -33 5 -33 10 0 4 -9 6 -20 3
-11 -3 -20 -2 -20 2 0 4 -8 7 -17 7 -16 1 -60 10 -88 18 -5 1 -28 7 -50 11
-46 10 -45 10 -65 17 -156 50 -274 91 -305 104 -22 10 -46 19 -54 20 -8 2 -18
9 -22 16 -5 7 -9 10 -9 6 0 -4 -46 16 -102 44 -57 29 -107 52 -111 52 -4 1
-12 8 -17 16 -5 8 -10 11 -10 6 0 -5 -8 -2 -18 7 -10 10 -22 14 -25 10 -4 -3
-7 -2 -7 3 0 5 -25 23 -55 39 -30 17 -55 33 -55 38 0 4 -5 7 -10 7 -10 0 -22
8 -55 38 -8 7 -15 11 -15 8 0 -3 -12 4 -26 17 -14 12 -27 20 -28 17 -1 -3 -13
6 -27 20 -14 14 -41 36 -60 50 -18 14 -44 35 -57 48 -12 12 -25 22 -28 22 -2
0 -18 14 -34 30 -16 16 -34 30 -40 30 -5 0 -10 6 -10 13 0 6 -12 20 -28 31
-15 10 -43 38 -62 61 -19 23 -37 41 -40 40 -3 -2 -11 3 -18 11 -7 8 -10 14 -7
14 2 0 -9 14 -27 30 -17 17 -28 30 -25 30 3 0 -12 18 -34 40 -21 21 -39 42
-39 44 0 7 -26 40 -57 71 -12 13 -19 26 -16 29 3 3 -2 8 -11 12 -9 3 -16 12
-16 20 0 7 -11 24 -24 37 -14 14 -22 28 -19 31 4 3 1 6 -5 6 -7 0 -12 7 -12
15 0 8 -4 15 -8 15 -9 0 -47 71 -44 83 1 4 -4 7 -11 7 -12 1 -47 65 -47 87 0
6 -4 13 -9 15 -8 3 -73 125 -69 130 1 2 -11 24 -26 51 -15 26 -25 47 -22 47 4
0 0 10 -8 22 -7 13 -28 64 -46 113 -17 50 -39 103 -47 119 -13 23 -13 27 -2
21 11 -7 12 -6 2 6 -6 8 -11 16 -12 19 0 3 -2 12 -4 20 -3 8 -8 26 -12 40 -35
138 -43 175 -39 182 3 4 0 8 -5 8 -6 0 -10 3 -10 8 1 4 0 9 -1 12 -1 3 -3 19
-4 35 -4 34 -14 106 -22 150 -24 127 -32 387 -18 585 4 58 8 120 8 138 1 17 4
32 8 32 3 0 5 8 4 17 -2 9 1 37 6 62 5 25 11 57 13 71 2 14 7 36 10 50 3 14 7
34 10 45 2 11 7 31 10 45 3 14 9 39 12 55 2 17 10 36 15 43 6 6 8 12 5 12 -4
0 0 18 8 40 8 22 12 40 8 40 -3 0 0 7 7 15 6 8 13 24 15 37 2 22 7 35 41 115
8 17 14 37 14 45 0 7 7 22 15 32 8 10 12 22 10 26 -3 4 2 13 10 20 8 7 15 19
15 26 0 14 50 125 61 134 5 5 17 32 20 48 1 4 14 25 28 47 15 22 47 74 71 115
25 41 51 80 60 87 8 7 11 13 7 13 -5 0 2 13 15 29 12 16 32 41 43 57 11 15 28
36 38 46 9 10 15 18 12 18 -6 0 11 20 61 74 18 20 31 36 29 36 -2 0 20 25 50
56 30 31 55 58 55 60 0 3 25 28 57 57 31 29 71 67 89 85 18 17 38 32 44 32 5
0 10 7 10 15 0 8 3 14 8 13 8 -3 32 15 60 45 9 9 20 17 25 17 4 0 18 11 31 25
13 13 26 22 29 18 4 -3 9 2 13 11 3 9 10 16 15 16 6 0 15 4 22 10 58 47 77 61
77 55 0 -3 7 0 15 7 26 24 39 33 78 53 20 11 37 23 37 28 0 4 4 6 9 2 5 -3 16
1 23 9 8 7 24 17 36 20 12 4 22 12 22 18 0 6 3 9 6 5 3 -3 24 5 45 19 21 13
42 24 46 24 5 0 26 9 48 19 22 11 47 22 55 25 8 3 26 14 40 23 13 10 21 13 17
6 -4 -6 10 -3 30 7 51 25 137 59 160 63 10 1 23 5 28 8 6 4 24 10 40 14 17 5
32 9 35 10 44 13 100 28 119 32 14 2 28 6 33 9 5 3 21 7 36 9 15 3 38 7 52 10
47 10 85 17 115 21 17 2 46 6 65 9 104 14 162 19 222 20 38 0 68 2 68 5 0 7
241 2 248 -4z"/>
<path d="M4028 7405 c-1 -1 -70 -5 -153 -9 -82 -3 -159 -8 -170 -10 -11 -2
-42 -7 -70 -10 -476 -61 -891 -229 -1260 -510 -519 -395 -868 -901 -1035
-1499 -22 -81 -23 -86 -40 -177 -6 -30 -12 -66 -15 -80 -11 -55 -14 -78 -20
-150 -4 -41 -9 -95 -11 -120 -11 -113 -4 -457 10 -550 3 -14 8 -50 11 -80 4
-30 9 -64 11 -75 2 -11 9 -47 14 -80 56 -316 213 -691 409 -975 121 -176 194
-263 370 -437 233 -233 487 -414 763 -546 112 -53 322 -134 398 -153 30 -8 62
-16 70 -19 44 -12 263 -54 315 -60 33 -4 69 -10 80 -12 11 -3 135 -6 275 -8
258 -3 371 4 570 39 19 3 46 8 60 10 117 19 405 111 544 174 224 100 482 263
645 407 343 300 565 581 736 930 90 185 139 314 184 488 27 103 34 138 47 222
3 17 9 55 14 85 19 108 25 218 25 425 0 222 -12 380 -40 515 -3 14 -8 41 -11
60 -3 19 -13 62 -21 95 -8 33 -16 67 -18 75 -9 43 -62 198 -102 297 -146 368
-392 714 -724 1018 -294 269 -599 451 -969 578 -73 25 -289 80 -360 92 -19 3
-42 7 -50 10 -8 2 -42 7 -75 10 -33 4 -71 8 -85 10 -14 2 -86 7 -160 10 -74 4
-140 8 -147 10 -6 2 -13 2 -15 0z m-290 -282 c39 -29 86 -128 138 -293 58
-179 110 -316 137 -354 l21 -29 28 34 c44 52 91 156 159 354 33 99 74 209 90
244 l29 63 47 -6 c87 -13 107 -17 190 -36 96 -23 213 -73 213 -92 0 -7 3 -533
6 -1168 10 -2008 8 -3507 -5 -3592 -3 -23 -156 -90 -233 -103 -24 -4 -51 -9
-60 -10 -9 -2 -47 -5 -84 -6 -59 -2 -68 0 -70 16 -12 82 -16 680 -15 2425 0
509 -1 1017 -3 1130 -3 113 -5 227 -5 254 l-1 49 -26 -24 c-39 -37 -81 -134
-160 -374 -39 -121 -80 -238 -89 -260 -17 -40 -18 -40 -27 -15 -5 14 -11 32
-13 41 -2 9 -14 49 -26 90 -13 41 -23 76 -24 79 -48 178 -141 450 -154 450
-29 0 -31 -114 -36 -1885 -5 -1709 -7 -1954 -18 -1971 -8 -13 -122 -9 -210 7
-70 12 -210 64 -225 82 -5 7 -9 66 -10 132 0 66 -3 345 -6 620 -8 658 -8 2678
0 3305 3 272 7 550 7 617 1 67 7 126 12 131 39 36 205 105 275 114 59 9 122 1
148 -19z m-725 -235 c9 -19 17 -53 18 -74 0 -21 0 -348 -1 -726 -1 -635 -3
-687 -18 -692 -79 -23 -377 -23 -453 0 -22 6 -26 44 -27 244 -1 223 -1 223
-11 239 -21 32 -151 -78 -232 -196 -123 -178 -235 -460 -256 -643 -13 -113
-10 -134 18 -147 64 -31 189 -38 634 -34 162 2 314 -4 322 -13 22 -22 22
-2480 0 -2502 -2 -2 -44 12 -93 31 -193 77 -410 232 -623 444 -139 139 -197
205 -324 371 -61 80 -157 241 -211 352 -44 92 -110 278 -101 286 2 3 19 6 37
8 18 3 51 6 73 9 91 11 288 5 361 -10 25 -6 59 -56 139 -210 32 -60 71 -129
88 -153 43 -59 145 -125 148 -94 0 4 2 14 4 22 20 87 26 215 25 510 0 238 -2
315 -9 426 -2 39 -94 47 -578 48 -262 1 -396 5 -403 12 -6 6 -10 79 -10 200 0
182 2 240 16 349 3 28 8 64 10 80 46 380 210 787 439 1090 172 229 410 448
685 631 151 100 291 183 305 180 6 -1 18 -18 28 -38z m2202 -21 c69 -29 110
-52 180 -102 112 -80 141 -119 160 -215 2 -8 11 -46 20 -85 20 -86 17 -71 55
-240 58 -260 151 -595 165 -595 4 0 54 83 103 170 14 25 38 64 53 87 16 23 29
44 29 47 0 3 18 34 41 70 47 75 49 75 120 1 77 -80 129 -170 204 -350 21 -49
57 -132 82 -184 42 -90 95 -255 107 -337 12 -77 16 -99 22 -129 14 -64 13
-498 -2 -580 -8 -44 -16 -96 -18 -115 -13 -101 -106 -431 -152 -535 -7 -16
-27 -66 -45 -110 -38 -94 -184 -383 -205 -406 -8 -8 -14 -19 -14 -23 0 -26
-164 -239 -239 -309 l-51 -49 0 139 c1 76 -2 185 -7 243 -10 148 -8 325 6 393
12 54 39 130 82 224 56 124 111 331 133 503 13 103 14 368 1 460 -12 86 -47
220 -57 220 -20 0 -75 -68 -93 -116 -27 -73 -74 -164 -84 -164 -25 0 -75 97
-129 250 -38 108 -65 171 -97 230 l-14 25 -15 -35 c-8 -19 -17 -64 -21 -100
-4 -35 -7 -618 -7 -1295 l1 -1230 -25 -38 c-14 -21 -53 -58 -87 -83 -60 -45
-282 -159 -321 -166 -22 -3 -20 -20 -32 342 -8 273 -17 4164 -9 4207 l6 32 52
-16 c29 -8 75 -24 102 -36z"/>
</g>
</svg>
